<svg xmlns="http://www.w3.org/2000/svg" xmlns:xlink="http://www.w3.org/1999/xlink" viewBox="0 0 84.72 84.72"><defs><style>.cls-1{fill:#3865ab}.cls-2{fill:#84aff1}.cls-3{fill:url(#linear-gradient)}</style><linearGradient id="linear-gradient" x1="23.44" x2="61.28" y1="42.36" y2="42.36" gradientUnits="userSpaceOnUse"><stop offset="0" stop-color="#f2cc0c"/><stop offset="1" stop-color="#ff9830"/></linearGradient></defs><g id="Layer_2" data-name="Layer 2"><g id="Layer_1-2" data-name="Layer 1"><rect width="67.66" height="67.66" x="8.53" y="8.53" class="cls-1" rx="1"/><path d="M83.72,84.72H1a1,1,0,0,1-1-1V1A1,1,0,0,1,1,0H83.72a1,1,0,0,1,1,1V83.72A1,1,0,0,1,83.72,84.72ZM5,80.72H79.72a1,1,0,0,0,1-1V5a1,1,0,0,0-1-1H5A1,1,0,0,0,4,5V79.72A1,1,0,0,0,5,80.72Z" class="cls-2"/><path d="M60.28,21.25H24.44a1,1,0,0,0-1,1V29a1,1,0,0,0,1,1H37a1,1,0,0,1,1,1V62.47a1,1,0,0,0,1,1h6.78a1,1,0,0,0,1-1V31a1,1,0,0,1,1-1H60.28a1,1,0,0,0,1-1V22.25A1,1,0,0,0,60.28,21.25Z" class="cls-3"/></g></g></svg>