<svg xmlns="http://www.w3.org/2000/svg" xmlns:xlink="http://www.w3.org/1999/xlink" viewBox="0 0 82.59 82.5"><defs><style>.cls-1{fill:#3865ab}.cls-2{fill:#84aff1}.cls-3{fill:url(#linear-gradient)}</style><linearGradient id="linear-gradient" x2="82.59" y1="21.17" y2="21.17" gradientUnits="userSpaceOnUse"><stop offset="0" stop-color="#f2cc0c"/><stop offset="1" stop-color="#ff9830"/></linearGradient></defs><g id="Layer_2" data-name="Layer 2"><g id="Layer_1-2" data-name="Layer 1"><rect width="8" height="62.89" x="73.22" y="19.61" class="cls-1" rx="1"/><rect width="8" height="28.89" x="1.78" y="53.61" class="cls-1" rx="1"/><path d="M8.78,82.5h-6a1,1,0,0,1-1-1V71.61h8V81.5A1,1,0,0,1,8.78,82.5Z" class="cls-2"/><path d="M80.22,82.5h-6a1,1,0,0,1-1-1V46.61h8V81.5A1,1,0,0,1,80.22,82.5Z" class="cls-2"/><rect width="8" height="32.89" x="58.93" y="49.61" class="cls-1" rx="1"/><path d="M65.93,82.5h-6a1,1,0,0,1-1-1V64.61h8V81.5A1,1,0,0,1,65.93,82.5Z" class="cls-2"/><rect width="8" height="43.89" x="44.64" y="38.61" class="cls-1" rx="1"/><path d="M51.64,82.5h-6a1,1,0,0,1-1-1V75.61h8V81.5A1,1,0,0,1,51.64,82.5Z" class="cls-2"/><rect width="8" height="54.89" x="30.36" y="27.61" class="cls-1" rx="1"/><path d="M37.36,82.5h-6a1,1,0,0,1-1-1V42.61h8V81.5A1,1,0,0,1,37.36,82.5Z" class="cls-2"/><rect width="8" height="44.89" x="16.07" y="37.61" class="cls-1" rx="1"/><path d="M23.07,82.5h-6a1,1,0,0,1-1-1V55.61h8V81.5A1,1,0,0,1,23.07,82.5Z" class="cls-2"/><path d="M2,42.33a2,2,0,0,1-1.44-.61,2,2,0,0,1,0-2.83l26-25a2,2,0,0,1,2.2-.39L54.56,25,79.18.58A2,2,0,0,1,82,3.42L56.41,28.75a2,2,0,0,1-2.22.41L28.42,17.71l-25,24.06A2,2,0,0,1,2,42.33Z" class="cls-3"/></g></g></svg>