<svg xmlns="http://www.w3.org/2000/svg" xmlns:xlink="http://www.w3.org/1999/xlink" viewBox="0 0 79.8 78.47"><defs><style>.cls-1{fill:url(#linear-gradient)}.cls-2{fill:url(#linear-gradient-2)}.cls-3{fill:url(#linear-gradient-3)}.cls-4{fill:#84aff1}.cls-5{fill:#3865ab}</style><linearGradient id="linear-gradient" x2="23.93" y1="6.25" y2="6.25" gradientUnits="userSpaceOnUse"><stop offset="0" stop-color="#f2cc0c"/><stop offset="1" stop-color="#ff9830"/></linearGradient><linearGradient id="linear-gradient-2" x1="55.87" x2="79.8" y1="6.25" y2="6.25" xlink:href="#linear-gradient"/><linearGradient id="linear-gradient-3" x1="27.93" x2="51.87" y1="6.25" y2="6.25" xlink:href="#linear-gradient"/></defs><g id="Layer_2" data-name="Layer 2"><g id="Layer_1-2" data-name="Layer 1"><path d="M0,1V12.49H23.93V0H1A1,1,0,0,0,0,1Z" class="cls-1"/><path d="M55.87,12.49H79.8V1a1,1,0,0,0-1-1H55.87Z" class="cls-2"/><rect width="23.93" height="12.49" x="27.93" class="cls-3"/><rect width="23.93" height="12.49" x="27.93" y="16.49" class="cls-4"/><rect width="23.93" height="12.49" y="16.49" class="cls-4"/><rect width="23.93" height="12.49" x="55.87" y="16.49" class="cls-4"/><rect width="23.93" height="12.5" x="55.87" y="32.99" class="cls-5"/><rect width="23.93" height="12.5" x="27.93" y="32.99" class="cls-5"/><rect width="23.93" height="12.5" y="32.99" class="cls-5"/><rect width="23.93" height="12.49" x="27.93" y="49.48" class="cls-4"/><rect width="23.93" height="12.49" x="55.87" y="49.48" class="cls-4"/><rect width="23.93" height="12.49" y="49.48" class="cls-4"/><rect width="23.93" height="12.49" x="27.93" y="65.98" class="cls-5"/><path d="M79.8,77.47V66H55.87V78.47H78.8A1,1,0,0,0,79.8,77.47Z" class="cls-5"/><path d="M23.93,78.47V66H0V77.47a1,1,0,0,0,1,1Z" class="cls-5"/></g></g></svg>